<?xml version="1.0"?>
<svg xmlns="http://www.w3.org/2000/svg" viewBox="0 0 512 512" width="512" height="512"><g id="Filled_outline" data-name="Filled outline"><path d="M376,300.87A59.126,59.126,0,0,1,316.87,360H195.13A59.134,59.134,0,0,1,136,300.87,334.96,334.96,0,0,1,144,228a335.83,335.83,0,0,0,8-72.88V128a104.1,104.1,0,0,1,61.6-94.99,100.981,100.981,0,0,1,15.07-5.37A104.049,104.049,0,0,1,360,128v27.12A334.96,334.96,0,0,0,368,228a334.96,334.96,0,0,1,8,72.87Z" style="fill:#91563a"/><path d="M128,496V360a48,48,0,0,1,48-48h36a12,12,0,0,0,12-12V232h64v68a12,12,0,0,0,12,12h36a48,48,0,0,1,48,48V496" style="fill:#fdc8a2"/><path d="M288,232v49.33a80.1,80.1,0,0,1-64,0V232Z" style="fill:#fdbf92"/><path d="M384,360V496H128V360a47.975,47.975,0,0,1,48-48h16l9,24,.96,2.55a57.614,57.614,0,0,0,21.16,27.17c1.16.8,2.35,1.57,3.56,2.28a57.7,57.7,0,0,0,83.36-29.45L311,336l9-24h16a47.991,47.991,0,0,1,48,48Z" style="fill:#dfdfdd"/><path d="M360,136h8a0,0,0,0,1,0,0v48a0,0,0,0,1,0,0h-8a24,24,0,0,1-24-24v0A24,24,0,0,1,360,136Z" transform="translate(704 320) rotate(-180)" style="fill:#fcb079"/><path d="M286.311,257.11a70.118,70.118,0,0,1-60.622,0C195.236,242.447,176,212.475,176,179.689c0-14.644,8.012-27.967,20.729-36.017,31.6-20,50.938-37.339,59.271-79.672,32,48,48,66.963,80,72v43.689C336,212.475,316.764,242.447,286.311,257.11Z" style="fill:#fdc8a2"/><path d="M376,361v7H298.873a65.828,65.828,0,0,0,13.51-16h69.284a8,8,0,0,0,7.464-10.877,64.571,64.571,0,0,0-9.674-15.991A66.605,66.605,0,0,0,384,300.87a346.533,346.533,0,0,0-2.048-37.526,345.967,345.967,0,0,0-6.143-37.081,329.716,329.716,0,0,1-5.856-35.351c-.4-3.7-.741-7.35-1.008-10.9A31.907,31.907,0,0,0,368,138.868V128A112.019,112.019,0,0,0,165.777,61.626l12.881,9.49A96.723,96.723,0,0,1,215.42,40.947C219,69.968,202.45,86.084,186.407,101.7c-6.165,6-11.988,11.666-16.543,17.93l12.939,9.41c3.753-5.159,9.1-10.363,14.762-15.874,17.763-17.286,39.742-38.694,33.2-77.827a95.942,95.942,0,0,1,17.233-3V63.181c-7.563,37.553-23.988,53.754-55.55,73.731C177.14,146.6,168,162.6,168,179.688c0,33.805,18.22,64.39,48,81.364V300a4,4,0,0,1-4,4h-5.757c-5.872-16.913-2.16-33.674-2.118-33.857L188.544,266.5a84.942,84.942,0,0,0,.987,37.5H176.62c-5.436-22.858-.168-49.187,2.538-60.052l-15.526-3.867c-7.559,30.35-5.871,52.462-2.919,66.057a55.72,55.72,0,0,0-15.234,6.947A51.167,51.167,0,0,1,144,300.87a326.926,326.926,0,0,1,7.81-71.134A344.454,344.454,0,0,0,160,155.12V128a94.916,94.916,0,0,1,10.793-44.273L156.6,76.338A112.289,112.289,0,0,0,144,128v27.12a328.359,328.359,0,0,1-7.809,71.143A342.874,342.874,0,0,0,128,300.87a66.6,66.6,0,0,0,4.44,23.991A55.725,55.725,0,0,0,120,360V496h16V480h29.34c.853,1.084,1.731,2.152,2.66,3.186V496h16V480H328v16h16V483.186c.929-1.034,1.807-2.1,2.66-3.186H376v16h16V361Zm0,23v16H136V384Zm-16.589,48A62.281,62.281,0,0,0,355,416h21v16ZM136,432V416h21a62.322,62.322,0,0,0-4.413,16Zm38.983-16H337.017a46.441,46.441,0,0,1,6.2,16H168.784A46.441,46.441,0,0,1,174.983,416Zm-38.178-64h62.812a65.828,65.828,0,0,0,13.51,16H136S136.278,354.586,136.805,352Zm55.651-16H144.022A39.962,39.962,0,0,1,176,320h10.456Zm127.088,0,6-16H336c15.685,0,25.827,8.541,31.692,16ZM296,261.052c26.115-14.885,43.328-40.24,47.172-69.052H344a31.87,31.87,0,0,0,9.82-1.548c.075.735.148,1.466.228,2.2a345.967,345.967,0,0,0,6.143,37.081,329.67,329.67,0,0,1,5.856,35.353A330.265,330.265,0,0,1,368,300.87a51.138,51.138,0,0,1-1.5,12.3,52.473,52.473,0,0,0-14.331-6.85,151.318,151.318,0,0,0-2.792-62.375l-15.468,4.088a134.911,134.911,0,0,1,2.424,55.979c-.112,0-.22-.01-.333-.01H324.727c5.283-24.868-1.933-43.708-2.284-44.6l-14.9,5.831c.07.182,6.389,17.145.742,38.769H300a4,4,0,0,1-4-4ZM360,160a16.019,16.019,0,0,1-16,16V144A16.019,16.019,0,0,1,360,160Zm-8-32v1.013A31.94,31.94,0,0,0,344,128h-7.357c-23.937-3.9-37.479-13.935-72.643-66.428V32.336A96.127,96.127,0,0,1,352,128ZM184,179.688c0-11.578,6.358-22.514,17.008-29.256.79-.5,1.567-1,2.341-1.495a13.958,13.958,0,1,0,6.56-4.324c24.644-16.687,40.4-33.077,49.454-61.372C283.62,118.363,300.484,136.2,328,142.6v37.093c0,29.9-17.3,56.8-45.16,70.213h0a62.109,62.109,0,0,1-53.681,0C201.3,236.489,184,209.586,184,179.688ZM232,300V268.217a78.022,78.022,0,0,0,48,0V300a20.023,20.023,0,0,0,20,20h8.456l-5.9,15.738a49.72,49.72,0,0,1-93.108,0L203.544,320H212A20.023,20.023,0,0,0,232,300ZM136,464V448h16.358a62.23,62.23,0,0,0,3.841,16Zm37.849,0a46.092,46.092,0,0,1-5.378-16H343.529a46.113,46.113,0,0,1-5.378,16ZM355.8,464a62.23,62.23,0,0,0,3.841-16H376v16Z"/><path d="M298,172a14,14,0,1,0-14-14A14.015,14.015,0,0,0,298,172Z"/><path d="M283.578,215.155l-7.156-14.31A68.138,68.138,0,0,1,246.111,208H240v16h6.111A84.213,84.213,0,0,0,283.578,215.155Z"/><path d="M320.155,113.569l15.69-3.138c-8.75-43.746-51.076-61.14-52.874-61.859l-5.942,14.856C277.389,63.571,313.087,78.228,320.155,113.569Z"/></g></svg>
