<svg id="Capa_1" enable-background="new 0 0 512 512" height="512" viewBox="0 0 512 512" width="512" xmlns="http://www.w3.org/2000/svg"><g><path d="m172.599 321.196c143.278 179.247 134.633 168.893 137.18 170.673 17.793 17.934 44.93 25.166 70.3 16.43 35.37-12.18 54.24-50.861 42.06-86.242-14.012-40.69-62.208-58.299-99.07-36.071l-129.54-256.305c-5.009-9.912-18.785-11.162-25.46-2.14-42.84 58.053-40.98 137.674 4.53 193.655zm160.82 151.703c-22.247-18.898-15.397-55.076 12.26-64.532 19.637-6.771 41.275 3.669 48.1 23.461 6.806 19.778-3.677 41.285-23.46 48.101-13.11 4.51-27.04 1.381-36.9-7.03z" fill="#aee8ff"/><path d="m422.14 422.058c-14.012-40.69-62.208-58.299-99.07-36.071-25.115-49.684-67.069-132.7-67.07-132.703v172.114l-.05.07c.715 1.001 51.065 64.469 53.83 66.401 17.918 18.06 45.09 25.11 70.3 16.43 35.37-12.179 54.24-50.86 42.06-86.241zm-51.82 57.871c-19.798 6.811-41.346-3.819-48.11-23.46-6.866-19.929 3.88-41.403 23.47-48.101 19.636-6.771 41.275 3.669 48.1 23.461 6.807 19.779-3.679 41.286-23.46 48.1z" fill="#8cd4f4"/><path d="m497 0h-482c-8.284 0-15 6.716-15 15v270.005c0 8.284 6.715 14.999 14.999 15 .131 0 481.8.03 482.001.03 8.279 0 15-6.716 15-15v-270.035c0-8.284-6.716-15-15-15zm-211 30.001h20.333c8.284 0 15 6.716 15 15 0 8.284-6.716 15-15 15h-20.333c-8.284 0-15-6.716-15-15s6.715-15 15-15zm-80.333 0h20.333c8.284 0 15 6.716 15 15s-6.715 15-15 15h-20.333c-8.284 0-15-6.716-15-15 0-8.285 6.716-15 15-15zm-140.336 240.007-20.331-.001c-8.284 0-15-6.717-15-15.001 0-8.285 6.716-15.001 15.001-15.001h20.331c8.285 0 15.001 6.716 15.001 15.001 0 8.287-6.717 15.003-15.002 15.002zm.002-210.007h-20.333c-8.284 0-15-6.716-15-15s6.715-15 15-15h20.333c8.284 0 15 6.716 15 15 0 8.284-6.716 15-15 15zm80.329 210.012-20.329-.001c-8.284 0-15-6.717-15-15.001 0-8.304 6.729-15.006 15.001-15.006h20.329c8.286 0 15.004 6.718 15.004 15.004 0 8.288-6.719 15.004-15.005 15.004zm.005-210.012h-20.334c-8.284 0-15-6.716-15-15 0-8.284 6.716-15 15-15h20.334c8.284 0 15 6.716 15 15 0 8.284-6.716 15-15 15zm240.988 210.026c-4.241 0-183.181-.011-180.983-.011-8.287 0-15.005-6.719-15.005-15.006 0-8.29 6.72-15.006 15.005-15.006h180.984c8.29 0 15.011 6.721 15.011 15.011 0 8.278-6.707 15.013-15.012 15.012zm.012-210.026h-20.334c-8.284 0-15-6.716-15-15 0-8.284 6.716-15 15-15h20.334c8.284 0 15 6.716 15 15 0 8.284-6.716 15-15 15zm80.321 210.032-20.311-.002c-8.29-.001-15.01-6.721-15.01-15.011 0-8.303 6.726-15.016 15.011-15.016h20.311c8.29 0 15.011 6.721 15.011 15.011 0 8.309-6.729 15.019-15.012 15.018zm.012-210.032h-20.333c-8.284 0-15-6.716-15-15s6.715-15 15-15h20.333c8.284 0 15 6.716 15 15s-6.715 15-15 15z" fill="#175066"/><path d="m497 0h-241v240.005h130.66c8.29 0 15.01 6.72 15.01 15.01s-6.72 15.01-15.02 15.01c-64.818 0-95.788-.01-130.65-.01v30.011c123.767 0 70.128-.002 241 .01 8.283 0 15-6.719 15-15v-270.036c0-8.28-6.72-15-15-15zm-211 30.001h20.33c8.29 0 15 6.72 15 15 0 8.251-6.689 15-15 15h-20.33c-8.28 0-15-6.72-15-15 0-8.268 6.719-15 15-15zm100.67 30h-20.34c-8.28 0-15-6.72-15-15 0-8.297 6.736-15 15-15h20.34c8.28 0 15 6.72 15 15 0 8.297-6.736 15-15 15zm80.32 210.034h-20.31c-8.29 0-15.01-6.72-15.01-15.01 0-8.326 6.742-15.02 15.01-15.02h20.31c8.29 0 15.01 6.72 15.01 15.01 0 8.326-6.742 15.02-15.01 15.02zm.01-210.034h-20.33c-8.29 0-15-6.72-15-15 0-8.251 6.689-15 15-15h20.33c8.28 0 15 6.72 15 15 0 8.268-6.719 15-15 15z" fill="#0f3d4f"/><path d="m30 90.002h452v120.002h-452z" fill="#ff9b57"/><path d="m256 90.002h226v120.002h-226z" fill="#fc7c54"/><path d="m343.82 127.543c-6.683-9.033-20.458-7.758-25.46 2.14l-129.54 256.305c-36.851-22.221-85.055-4.63-99.07 36.071-12.18 35.381 6.69 74.061 42.06 86.242 25.112 8.646 52.309 1.702 70.3-16.43 2.547-1.78-6.149 8.639 137.18-170.673 45.51-55.983 47.37-135.604 4.53-193.655zm-202.25 352.386c-19.778-6.814-30.268-28.318-23.46-48.101 6.827-19.797 28.469-30.229 48.1-23.461 19.561 6.688 30.345 28.144 23.47 48.101-6.76 19.629-28.3 30.276-48.11 23.461z" fill="#d2f1ff"/><path d="m343.82 127.543c-6.683-9.033-20.458-7.758-25.46 2.14-.095.189-62.322 123.3-62.41 123.492l.05.11v172.114c91.3-114.225 89.769-111.283 97.82-125.373 30.467-52.988 28.043-120.932-10-172.483z" fill="#aee8ff"/></g></svg>